<svg xmlns="http://www.w3.org/2000/svg" xmlns:v="https://svgstorm.com"
viewBox = "0 0 144 200"
width="144"
height="200">
<g fill="None" fill-opacity="0.0" stroke="#000000" stroke-opacity="0.00" stroke-width="0.3"><path d="
M 0.00 200.00 
L 144.00 200.00
L 144.00 0.00
L 0.00 0.00
L 0.00 200.00
M 97.00 76.00 
C 91.91 84.31 84.01 90.44 76.00 95.00
C 73.19 96.60 70.24 98.80 67.00 100.00
C 65.25 100.65 63.77 100.52 62.00 101.00
C 60.03 101.87 58.39 102.50 56.00 103.00
C 51.27 104.00 46.07 104.41 41.00 104.00
C 28.61 103.00 29.03 82.83 25.00 74.00
C 28.11 73.15 30.15 75.81 33.00 76.00
C 34.34 76.05 35.36 75.06 36.00 75.00
C 37.20 72.54 30.40 66.71 30.07 62.93 C 29.75 59.15 25.44 53.09 25.67 48.33 C 25.90 43.57 24.05 36.43 25.33 31.33 C 26.61 26.23 27.07 20.96 29.00 16.00
C 35.18 19.49 36.53 30.07 44.00 33.00
C 46.79 21.85 50.25 7.01 60.00 1.00
C 59.01 10.03 61.37 18.76 64.31 26.69 C 67.24 34.63 70.59 39.37 75.77 46.23 C 80.95 53.09 94.08 44.23 98.00 51.00
C 100.33 46.11 102.92 41.14 105.00 36.00
C 110.66 48.73 103.06 64.29 97.00 76.00
M 48.00 134.00 
C 47.59 136.52 44.47 137.05 43.00 138.00
C 41.05 139.25 39.66 141.60 37.00 141.00
C 37.39 138.27 34.07 137.63 33.00 136.00
C 30.66 135.29 27.45 136.22 25.00 136.00
C 23.42 137.11 21.86 138.26 21.00 140.00
C 20.60 142.10 19.59 144.30 19.00 146.00
C 18.84 146.45 18.84 147.56 19.00 148.00
C 19.52 149.46 19.56 151.21 20.00 153.00
C 20.09 153.23 24.88 157.96 25.00 158.00
C 29.46 158.90 35.47 157.44 37.00 153.00
C 45.67 153.05 53.97 163.75 42.00 167.00
C 40.25 168.14 39.12 169.29 37.00 170.00
C 33.15 171.28 29.18 171.00 25.00 171.00
C 24.50 171.00 23.46 171.13 23.00 171.00
C 19.84 170.13 17.34 167.81 15.00 166.00
C 12.39 163.98 10.83 162.81 9.00 160.00
C 3.49 151.55 4.30 142.25 9.00 134.00
C 12.84 127.25 18.18 123.85 26.00 123.00
C 31.33 122.42 49.56 124.44 48.00 134.00
M 104.00 141.00 
C 104.89 140.17 104.66 142.26 106.00 140.00
C 108.52 135.75 108.34 130.17 111.00 126.00
C 114.24 120.93 120.98 123.59 127.00 123.00
C 129.08 135.91 127.36 150.84 128.00 164.00 C 128.64 177.16 120.41 167.97 113.00 171.00
C 113.79 169.84 111.04 168.47 113.00 168.00
C 112.66 165.65 111.77 163.60 113.00 161.00 C 114.23 158.40 110.75 156.28 111.00 157.00
C 110.27 161.16 108.98 163.89 104.00 163.00
C 100.46 162.37 99.52 159.20 99.00 156.00
C 98.92 155.51 99.00 155.00 99.00 155.00
C 94.23 159.11 101.11 178.79 85.00 171.00
C 79.67 168.42 84.27 154.41 83.00 148.00 C 81.73 141.59 83.95 129.89 83.00 123.00
C 97.11 118.71 102.97 128.96 104.00 141.00
M 66.00 159.00 
C 72.06 159.26 74.24 169.83 66.75 170.80 C 59.26 171.77 56.80 158.61 66.00 159.00
M 47.00 184.00 
C 46.20 184.46 42.98 184.22 43.00 186.00
C 43.97 187.78 44.47 187.20 46.00 188.00
C 46.61 188.06 48.59 184.48 49.30 187.71 C 50.00 190.94 50.78 190.83 48.00 192.00
C 45.04 193.25 39.86 191.24 39.00 188.00
C 37.90 183.85 39.54 181.30 43.00 180.00
C 47.05 178.48 52.49 180.82 47.00 184.00
M 68.00 179.00 
C 75.34 180.61 72.19 194.52 64.33 191.67 C 56.46 188.81 60.26 177.31 68.00 179.00
M 85.00 179.00 
C 87.02 182.07 86.25 184.83 87.00 188.00
C 90.72 187.14 91.71 189.26 92.00 192.00
C 88.67 192.00 85.33 192.00 82.00 192.00
C 82.77 187.87 79.87 180.36 85.00 179.00 Z"/>
</g>
<g fill="None" fill-opacity="0.0" stroke="#F1FCFC" stroke-opacity="0.91" stroke-width="0.3"><path d="
M 36.00 75.00 
C 42.55 74.34 50.96 77.58 58.00 76.00
C 53.55 80.87 39.62 80.16 33.00 76.00
C 30.15 75.81 28.11 73.15 25.00 74.00
C 29.03 82.83 28.61 103.00 41.00 104.00
C 42.64 103.72 45.24 101.64 48.00 102.00 C 50.76 102.36 54.13 103.01 56.00 103.00
C 58.39 102.50 60.03 101.87 62.00 101.00
C 63.91 100.16 65.90 100.27 67.00 100.00
C 70.24 98.80 73.19 96.60 76.00 95.00
C 82.65 89.80 91.95 82.34 97.00 76.00
C 103.06 64.29 110.66 48.73 105.00 36.00
C 102.92 41.14 100.33 46.11 98.00 51.00
C 94.08 44.23 80.95 53.09 75.77 46.23 C 70.59 39.37 67.24 34.63 64.31 26.69 C 61.37 18.76 59.01 10.03 60.00 1.00
C 50.25 7.01 46.79 21.85 44.00 33.00
C 36.53 30.07 35.18 19.49 29.00 16.00
C 27.07 20.96 26.61 26.23 25.33 31.33 C 24.05 36.43 25.90 43.57 25.67 48.33 C 25.44 53.09 29.75 59.15 30.07 62.93 C 30.40 66.71 37.20 72.54 36.00 75.00
M 50.00 37.00 
C 47.66 36.32 45.05 37.12 44.00 34.00
C 46.33 31.66 48.91 35.10 50.00 37.00
M 73.00 47.00 
C 67.47 50.21 66.29 43.23 73.00 47.00
M 96.00 54.00 
C 94.57 60.39 83.47 68.36 78.00 68.00
C 78.82 66.96 80.91 63.19 82.00 65.00
C 83.13 64.42 83.29 63.90 84.00 63.00
C 85.79 60.73 87.68 59.63 90.00 58.00
C 90.84 57.04 90.81 57.48 92.00 57.00
C 92.27 56.77 99.21 49.47 96.00 54.00 Z"/>
</g>
<g fill="None" fill-opacity="0.0" stroke="#D5E3E4" stroke-opacity="0.20" stroke-width="0.3"><path d="
M 50.00 37.00 
C 48.91 35.10 46.33 31.66 44.00 34.00
C 45.05 37.12 47.66 36.32 50.00 37.00 Z"/>
</g>
<g fill="None" fill-opacity="0.0" stroke="#8C9193" stroke-opacity="0.13" stroke-width="0.3"><path d="
M 73.00 47.00 
C 66.29 43.23 67.47 50.21 73.00 47.00 Z"/>
</g>
<g fill="None" fill-opacity="0.0" stroke="#050606" stroke-opacity="0.02" stroke-width="0.3"><path d="
M 92.00 57.00 
C 92.44 56.83 93.69 56.27 94.00 56.00
C 94.48 55.42 95.67 54.47 96.00 54.00
C 99.21 49.47 92.27 56.77 92.00 57.00 Z"/>
</g>
<g fill="None" fill-opacity="0.0" stroke="#E3F2F3" stroke-opacity="0.23" stroke-width="0.3"><path d="
M 94.00 56.00 
C 92.41 57.90 90.81 59.31 89.00 61.00
C 87.92 62.59 79.43 68.62 82.00 65.00
C 80.91 63.19 78.82 66.96 78.00 68.00
C 83.47 68.36 94.57 60.39 96.00 54.00
C 95.67 54.47 94.48 55.42 94.00 56.00 Z"/>
</g>
<g fill="None" fill-opacity="0.0" stroke="#FEFFFF" stroke-opacity="0.05" stroke-width="0.3"><path d="
M 92.00 57.00 
C 90.81 57.48 90.84 57.04 90.00 58.00
C 89.58 58.48 89.11 59.38 89.00 60.00
C 88.91 60.48 89.00 61.00 89.00 61.00
C 90.81 59.31 92.41 57.90 94.00 56.00
C 93.69 56.27 92.44 56.83 92.00 57.00 Z"/>
</g>
<g fill="None" fill-opacity="0.0" stroke="#ECFDFF" stroke-opacity="0.33" stroke-width="0.3"><path d="
M 84.00 63.00 
C 85.40 61.78 87.71 61.41 89.00 60.00
C 89.11 59.38 89.58 58.48 90.00 58.00
C 87.68 59.63 85.79 60.73 84.00 63.00 Z"/>
</g>
<g fill="None" fill-opacity="0.0" stroke="#171819" stroke-opacity="0.01" stroke-width="0.3"><path d="
M 84.00 63.00 
C 83.29 63.90 83.13 64.42 82.00 65.00
C 79.43 68.62 87.92 62.59 89.00 61.00
C 89.00 61.00 88.91 60.48 89.00 60.00
C 87.71 61.41 85.40 61.78 84.00 63.00 Z"/>
</g>
<g fill="None" fill-opacity="0.0" stroke="#F4F9F8" stroke-opacity="0.18" stroke-width="0.3"><path d="
M 33.00 76.00 
C 39.62 80.16 53.55 80.87 58.00 76.00
C 50.96 77.58 42.55 74.34 36.00 75.00
C 35.36 75.06 34.34 76.05 33.00 76.00 Z"/>
</g>
<g fill="None" fill-opacity="0.0" stroke="#D9FBFE" stroke-opacity="0.35" stroke-width="0.3"><path d="
M 76.00 95.00 
C 84.01 90.44 91.91 84.31 97.00 76.00
C 91.95 82.34 82.65 89.80 76.00 95.00 Z"/>
</g>
<g fill="None" fill-opacity="0.0" stroke="#CEFCFF" stroke-opacity="0.36" stroke-width="0.3"><path d="
M 62.00 101.00 
C 63.77 100.52 65.25 100.65 67.00 100.00
C 65.90 100.27 63.91 100.16 62.00 101.00 Z"/>
</g>
<g fill="None" fill-opacity="0.0" stroke="#D9FBFA" stroke-opacity="0.35" stroke-width="0.3"><path d="
M 41.00 104.00 
C 46.07 104.41 51.27 104.00 56.00 103.00
C 54.13 103.01 50.76 102.36 48.00 102.00 C 45.24 101.64 42.64 103.72 41.00 104.00 Z"/>
</g>
<g fill="None" fill-opacity="0.0" stroke="#F6FDFC" stroke-opacity="0.90" stroke-width="0.3"><path d="
M 26.00 123.00 
C 20.27 124.53 13.12 128.99 9.00 134.00
C 4.30 142.25 3.49 151.55 9.00 160.00
C 10.78 161.80 13.28 163.99 15.00 166.00
C 17.34 167.81 19.84 170.13 23.00 171.00
C 20.28 169.54 24.29 169.13 25.00 169.00
C 29.06 168.28 33.03 168.91 37.00 168.00
C 38.41 167.68 41.71 167.12 42.00 167.00
C 53.97 163.75 45.67 153.05 37.00 153.00
C 35.47 157.44 29.46 158.90 25.00 158.00
C 22.27 157.45 20.65 155.64 20.00 153.00
C 19.56 151.21 19.52 149.46 19.00 148.00
C 19.48 149.49 18.02 141.23 19.00 146.00
C 19.59 144.30 20.60 142.10 21.00 140.00
C 21.40 137.90 20.16 135.02 25.00 135.00
C 28.50 132.17 32.22 135.32 33.00 136.00
C 34.07 137.63 37.39 138.27 37.00 141.00
C 39.66 141.60 41.05 139.25 43.00 138.00
C 44.49 136.62 45.41 133.62 48.00 134.00
C 49.56 124.44 31.33 122.42 26.00 123.00 Z"/>
</g>
<g fill="None" fill-opacity="0.0" stroke="#E5FDFF" stroke-opacity="0.37" stroke-width="0.3"><path d="
M 9.00 134.00 
C 13.12 128.99 20.27 124.53 26.00 123.00
C 18.18 123.85 12.84 127.25 9.00 134.00 Z"/>
</g>
<g fill="None" fill-opacity="0.0" stroke="#F6FDFD" stroke-opacity="0.94" stroke-width="0.3"><path d="
M 85.00 171.00 
C 87.02 167.18 92.49 169.76 96.00 169.00
C 97.25 162.13 93.44 151.46 98.00 147.00
C 97.62 150.48 100.80 152.35 99.00 155.00
C 99.00 155.00 98.92 155.51 99.00 156.00
C 101.19 157.09 101.26 162.07 104.00 163.00
C 108.98 163.89 110.27 161.16 111.00 157.00
C 111.39 154.78 110.99 149.89 113.00 147.00
C 117.97 152.73 113.22 161.94 114.00 169.00
C 125.69 176.25 127.27 162.88 126.00 154.00 C 124.73 145.12 126.96 133.16 126.00 124.00
C 121.00 124.63 114.99 122.35 111.00 126.00
C 108.34 130.17 108.52 135.75 106.00 140.00
C 105.89 140.55 106.91 143.59 106.00 145.00
C 104.27 145.56 101.95 141.77 104.00 141.00
C 102.97 128.96 97.11 118.71 83.00 123.00
C 83.95 129.89 81.73 141.59 83.00 148.00 C 84.27 154.41 79.67 168.42 85.00 171.00 Z"/>
</g>
<g fill="None" fill-opacity="0.0" stroke="#F2FCFB" stroke-opacity="0.24" stroke-width="0.3"><path d="
M 111.00 126.00 
C 114.99 122.35 121.00 124.63 126.00 124.00
C 126.96 133.16 124.73 145.12 126.00 154.00 C 127.27 162.88 125.69 176.25 114.00 169.00
C 113.68 168.80 113.05 168.35 113.00 168.00
C 111.04 168.47 113.79 169.84 113.00 171.00
C 120.41 167.97 128.64 177.16 128.00 164.00 C 127.36 150.84 129.08 135.91 127.00 123.00
C 120.98 123.59 114.24 120.93 111.00 126.00 Z"/>
</g>
<g fill="None" fill-opacity="0.0" stroke="#E5FDFC" stroke-opacity="0.38" stroke-width="0.3"><path d="
M 25.00 135.00 
C 24.76 135.20 25.00 136.00 25.00 136.00
C 27.45 136.22 30.66 135.29 33.00 136.00
C 32.22 135.32 28.50 132.17 25.00 135.00 Z"/>
</g>
<g fill="None" fill-opacity="0.0" stroke="#E6FDFF" stroke-opacity="0.20" stroke-width="0.3"><path d="
M 43.00 138.00 
C 44.47 137.05 47.59 136.52 48.00 134.00
C 45.41 133.62 44.49 136.62 43.00 138.00 Z"/>
</g>
<g fill="None" fill-opacity="0.0" stroke="#E2FEFE" stroke-opacity="0.60" stroke-width="0.3"><path d="
M 21.00 140.00 
C 21.86 138.26 23.42 137.11 25.00 136.00
C 25.00 136.00 24.76 135.20 25.00 135.00
C 20.16 135.02 21.40 137.90 21.00 140.00 Z"/>
</g>
<g fill="None" fill-opacity="0.0" stroke="#EDFBFD" stroke-opacity="0.46" stroke-width="0.3"><path d="
M 104.00 141.00 
C 101.95 141.77 104.27 145.56 106.00 145.00
C 106.91 143.59 105.89 140.55 106.00 140.00
C 104.66 142.26 104.89 140.17 104.00 141.00 Z"/>
</g>
<g fill="None" fill-opacity="0.0" stroke="#E8FDFE" stroke-opacity="0.67" stroke-width="0.3"><path d="
M 19.00 148.00 
C 18.84 147.56 18.84 146.45 19.00 146.00
C 18.02 141.23 19.48 149.49 19.00 148.00 Z"/>
</g>
<g fill="None" fill-opacity="0.0" stroke="#EDFDFE" stroke-opacity="0.40" stroke-width="0.3"><path d="
M 85.00 171.00 
C 101.11 178.79 94.23 159.11 99.00 155.00
C 100.80 152.35 97.62 150.48 98.00 147.00
C 93.44 151.46 97.25 162.13 96.00 169.00
C 92.49 169.76 87.02 167.18 85.00 171.00 Z"/>
</g>
<g fill="None" fill-opacity="0.0" stroke="#EDFCFD" stroke-opacity="0.47" stroke-width="0.3"><path d="
M 111.00 157.00 
C 110.75 156.28 114.23 158.40 113.00 161.00 C 111.77 163.60 112.66 165.65 113.00 168.00
C 113.05 168.35 113.68 168.80 114.00 169.00
C 113.22 161.94 117.97 152.73 113.00 147.00
C 110.99 149.89 111.39 154.78 111.00 157.00 Z"/>
</g>
<g fill="None" fill-opacity="0.0" stroke="#E4FEFF" stroke-opacity="0.31" stroke-width="0.3"><path d="
M 25.00 158.00 
C 24.88 157.96 20.09 153.23 20.00 153.00
C 20.65 155.64 22.27 157.45 25.00 158.00 Z"/>
</g>
<g fill="None" fill-opacity="0.0" stroke="#E5FDFE" stroke-opacity="0.35" stroke-width="0.3"><path d="
M 104.00 163.00 
C 101.26 162.07 101.19 157.09 99.00 156.00
C 99.52 159.20 100.46 162.37 104.00 163.00 Z"/>
</g>
<g fill="None" fill-opacity="0.0" stroke="#F4FCFC" stroke-opacity="0.66" stroke-width="0.3"><path d="
M 66.00 159.00 
C 56.80 158.61 59.26 171.77 66.75 170.80 C 74.24 169.83 72.06 159.26 66.00 159.00 Z"/>
</g>
<g fill="None" fill-opacity="0.0" stroke="#E9FEFF" stroke-opacity="0.41" stroke-width="0.3"><path d="
M 15.00 166.00 
C 13.28 163.99 10.78 161.80 9.00 160.00
C 10.83 162.81 12.39 163.98 15.00 166.00 Z"/>
</g>
<g fill="None" fill-opacity="0.0" stroke="#E6FEFD" stroke-opacity="0.29" stroke-width="0.3"><path d="
M 37.00 168.00 
C 36.77 168.14 37.24 169.69 37.00 170.00
C 39.12 169.29 40.25 168.14 42.00 167.00
C 41.71 167.12 38.41 167.68 37.00 168.00 Z"/>
</g>
<g fill="None" fill-opacity="0.0" stroke="#DFFCFD" stroke-opacity="0.53" stroke-width="0.3"><path d="
M 25.00 169.00 
C 24.81 169.08 25.25 170.75 25.00 171.00
C 29.18 171.00 33.15 171.28 37.00 170.00
C 37.24 169.69 36.77 168.14 37.00 168.00
C 33.03 168.91 29.06 168.28 25.00 169.00 Z"/>
</g>
<g fill="None" fill-opacity="0.0" stroke="#DBFCFE" stroke-opacity="0.34" stroke-width="0.3"><path d="
M 23.00 171.00 
C 23.46 171.13 24.50 171.00 25.00 171.00
C 25.25 170.75 24.81 169.08 25.00 169.00
C 24.29 169.13 20.28 169.54 23.00 171.00 Z"/>
</g>
<g fill="None" fill-opacity="0.0" stroke="#E2F5FB" stroke-opacity="0.17" stroke-width="0.3"><path d="
M 43.00 180.00 
C 44.49 179.49 46.47 180.39 48.00 180.00
C 48.51 181.41 47.19 182.15 46.00 182.00
C 45.75 182.67 47.32 183.19 47.00 184.00
C 52.49 180.82 47.05 178.48 43.00 180.00 Z"/>
</g>
<g fill="None" fill-opacity="0.0" stroke="#EEFAF7" stroke-opacity="0.55" stroke-width="0.3"><path d="
M 68.00 179.00 
C 60.26 177.31 56.46 188.81 64.33 191.67 C 72.19 194.52 75.34 180.61 68.00 179.00
M 66.00 183.00 
C 72.17 185.83 62.67 190.58 66.00 183.00 Z"/>
</g>
<g fill="None" fill-opacity="0.0" stroke="#F1FAF7" stroke-opacity="0.52" stroke-width="0.3"><path d="
M 85.00 179.00 
C 79.87 180.36 82.77 187.87 82.00 192.00
C 85.33 192.00 88.67 192.00 92.00 192.00
C 91.71 189.26 90.72 187.14 87.00 188.00
C 86.25 184.83 87.02 182.07 85.00 179.00 Z"/>
</g>
<g fill="None" fill-opacity="0.0" stroke="#E7FDFF" stroke-opacity="0.38" stroke-width="0.3"><path d="
M 39.00 188.00 
C 38.82 186.87 41.19 180.62 43.00 180.00
C 39.54 181.30 37.90 183.85 39.00 188.00 Z"/>
</g>
<g fill="None" fill-opacity="0.0" stroke="#E8F2ED" stroke-opacity="0.70" stroke-width="0.3"><path d="
M 39.00 188.00 
C 39.86 191.24 45.04 193.25 48.00 192.00
C 49.19 191.28 48.87 189.11 49.00 188.00
C 48.00 188.00 47.00 188.00 46.00 188.00
C 44.47 187.20 43.97 187.78 43.00 186.00
C 42.44 184.97 42.32 183.19 42.00 182.00
C 43.33 182.00 44.67 182.00 46.00 182.00
C 47.19 182.15 48.51 181.41 48.00 180.00
C 46.47 180.39 44.49 179.49 43.00 180.00
C 41.19 180.62 38.82 186.87 39.00 188.00 Z"/>
</g>
<g fill="None" fill-opacity="0.0" stroke="#DDD6E6" stroke-opacity="0.24" stroke-width="0.3"><path d="
M 43.00 186.00 
C 42.98 184.22 46.20 184.46 47.00 184.00
C 47.32 183.19 45.75 182.67 46.00 182.00
C 44.67 182.00 43.33 182.00 42.00 182.00
C 42.32 183.19 42.44 184.97 43.00 186.00 Z"/>
</g>
<g fill="None" fill-opacity="0.0" stroke="#000000" stroke-opacity="0.00" stroke-width="0.3"><path d="
M 66.00 183.00 
C 62.67 190.58 72.17 185.83 66.00 183.00 Z"/>
</g>
<g fill="None" fill-opacity="0.0" stroke="#C8F1FC" stroke-opacity="0.08" stroke-width="0.3"><path d="
M 46.00 188.00 
C 47.00 188.00 48.00 188.00 49.00 188.00
C 48.87 189.11 49.19 191.28 48.00 192.00
C 50.78 190.83 50.00 190.94 49.30 187.71 C 48.59 184.48 46.61 188.06 46.00 188.00 Z"/>
</g>
<g fill="#000000" fill-opacity="0.00" stroke="None">
<path d="
M 0.00 200.00 
L 144.00 200.00
L 144.00 0.00
L 0.00 0.00
L 0.00 200.00
M 97.00 76.00 
C 91.91 84.31 84.01 90.44 76.00 95.00
C 73.19 96.60 70.24 98.80 67.00 100.00
C 65.25 100.65 63.77 100.52 62.00 101.00
C 60.03 101.87 58.39 102.50 56.00 103.00
C 51.27 104.00 46.07 104.41 41.00 104.00
C 28.61 103.00 29.03 82.83 25.00 74.00
C 28.11 73.15 30.15 75.81 33.00 76.00
C 34.34 76.05 35.36 75.06 36.00 75.00
C 37.20 72.54 30.40 66.71 30.07 62.93 C 29.75 59.15 25.44 53.09 25.67 48.33 C 25.90 43.57 24.05 36.43 25.33 31.33 C 26.61 26.23 27.07 20.96 29.00 16.00
C 35.18 19.49 36.53 30.07 44.00 33.00
C 46.79 21.85 50.25 7.01 60.00 1.00
C 59.01 10.03 61.37 18.76 64.31 26.69 C 67.24 34.63 70.59 39.37 75.77 46.23 C 80.95 53.09 94.08 44.23 98.00 51.00
C 100.33 46.11 102.92 41.14 105.00 36.00
C 110.66 48.73 103.06 64.29 97.00 76.00
M 48.00 134.00 
C 47.59 136.52 44.47 137.05 43.00 138.00
C 41.05 139.25 39.66 141.60 37.00 141.00
C 37.39 138.27 34.07 137.63 33.00 136.00
C 30.66 135.29 27.45 136.22 25.00 136.00
C 23.42 137.11 21.86 138.26 21.00 140.00
C 20.60 142.10 19.59 144.30 19.00 146.00
C 18.84 146.45 18.84 147.56 19.00 148.00
C 19.52 149.46 19.56 151.21 20.00 153.00
C 20.09 153.23 24.88 157.96 25.00 158.00
C 29.46 158.90 35.47 157.44 37.00 153.00
C 45.67 153.05 53.97 163.75 42.00 167.00
C 40.25 168.14 39.12 169.29 37.00 170.00
C 33.15 171.28 29.18 171.00 25.00 171.00
C 24.50 171.00 23.46 171.13 23.00 171.00
C 19.84 170.13 17.34 167.81 15.00 166.00
C 12.39 163.98 10.83 162.81 9.00 160.00
C 3.49 151.55 4.30 142.25 9.00 134.00
C 12.84 127.25 18.18 123.85 26.00 123.00
C 31.33 122.42 49.56 124.44 48.00 134.00
M 104.00 141.00 
C 104.89 140.17 104.66 142.26 106.00 140.00
C 108.52 135.75 108.34 130.17 111.00 126.00
C 114.24 120.93 120.98 123.59 127.00 123.00
C 129.08 135.91 127.36 150.84 128.00 164.00 C 128.64 177.16 120.41 167.97 113.00 171.00
C 113.79 169.84 111.04 168.47 113.00 168.00
C 112.66 165.65 111.77 163.60 113.00 161.00 C 114.23 158.40 110.75 156.28 111.00 157.00
C 110.27 161.16 108.98 163.89 104.00 163.00
C 100.46 162.37 99.52 159.20 99.00 156.00
C 98.92 155.51 99.00 155.00 99.00 155.00
C 94.23 159.11 101.11 178.79 85.00 171.00
C 79.67 168.42 84.27 154.41 83.00 148.00 C 81.73 141.59 83.95 129.89 83.00 123.00
C 97.11 118.71 102.97 128.96 104.00 141.00
M 66.00 159.00 
C 72.06 159.26 74.24 169.83 66.75 170.80 C 59.26 171.77 56.80 158.61 66.00 159.00
M 47.00 184.00 
C 46.20 184.46 42.98 184.22 43.00 186.00
C 43.97 187.78 44.47 187.20 46.00 188.00
C 46.61 188.06 48.59 184.48 49.30 187.71 C 50.00 190.94 50.78 190.83 48.00 192.00
C 45.04 193.25 39.86 191.24 39.00 188.00
C 37.90 183.85 39.54 181.30 43.00 180.00
C 47.05 178.48 52.49 180.82 47.00 184.00
M 68.00 179.00 
C 75.34 180.61 72.19 194.52 64.33 191.67 C 56.46 188.81 60.26 177.31 68.00 179.00
M 85.00 179.00 
C 87.02 182.07 86.25 184.83 87.00 188.00
C 90.72 187.14 91.71 189.26 92.00 192.00
C 88.67 192.00 85.33 192.00 82.00 192.00
C 82.77 187.87 79.87 180.36 85.00 179.00 Z"/>
</g>
<g fill="#F1FCFC" fill-opacity="0.91" stroke="None">
<path d="
M 36.00 75.00 
C 42.55 74.34 50.96 77.58 58.00 76.00
C 53.55 80.87 39.62 80.16 33.00 76.00
C 30.15 75.81 28.11 73.15 25.00 74.00
C 29.03 82.83 28.61 103.00 41.00 104.00
C 42.64 103.72 45.24 101.64 48.00 102.00 C 50.76 102.36 54.13 103.01 56.00 103.00
C 58.39 102.50 60.03 101.87 62.00 101.00
C 63.91 100.16 65.90 100.27 67.00 100.00
C 70.24 98.80 73.19 96.60 76.00 95.00
C 82.65 89.80 91.95 82.34 97.00 76.00
C 103.06 64.29 110.66 48.73 105.00 36.00
C 102.92 41.14 100.33 46.11 98.00 51.00
C 94.08 44.23 80.95 53.09 75.77 46.23 C 70.59 39.37 67.24 34.63 64.31 26.69 C 61.37 18.76 59.01 10.03 60.00 1.00
C 50.25 7.01 46.79 21.85 44.00 33.00
C 36.53 30.07 35.18 19.49 29.00 16.00
C 27.07 20.96 26.61 26.23 25.33 31.33 C 24.05 36.43 25.90 43.57 25.67 48.33 C 25.44 53.09 29.75 59.15 30.07 62.93 C 30.40 66.71 37.20 72.54 36.00 75.00
M 50.00 37.00 
C 47.66 36.32 45.05 37.12 44.00 34.00
C 46.33 31.66 48.91 35.10 50.00 37.00
M 73.00 47.00 
C 67.47 50.21 66.29 43.23 73.00 47.00
M 96.00 54.00 
C 94.57 60.39 83.47 68.36 78.00 68.00
C 78.82 66.96 80.91 63.19 82.00 65.00
C 83.13 64.42 83.29 63.90 84.00 63.00
C 85.79 60.73 87.68 59.63 90.00 58.00
C 90.84 57.04 90.81 57.48 92.00 57.00
C 92.27 56.77 99.21 49.47 96.00 54.00 Z"/>
</g>
<g fill="#D5E3E4" fill-opacity="0.20" stroke="None">
<path d="
M 50.00 37.00 
C 48.91 35.10 46.33 31.66 44.00 34.00
C 45.05 37.12 47.66 36.32 50.00 37.00 Z"/>
</g>
<g fill="#8C9193" fill-opacity="0.13" stroke="None">
<path d="
M 73.00 47.00 
C 66.29 43.23 67.47 50.21 73.00 47.00 Z"/>
</g>
<g fill="#050606" fill-opacity="0.02" stroke="None">
<path d="
M 92.00 57.00 
C 92.44 56.83 93.69 56.27 94.00 56.00
C 94.48 55.42 95.67 54.47 96.00 54.00
C 99.21 49.47 92.27 56.77 92.00 57.00 Z"/>
</g>
<g fill="#E3F2F3" fill-opacity="0.23" stroke="None">
<path d="
M 94.00 56.00 
C 92.41 57.90 90.81 59.31 89.00 61.00
C 87.92 62.59 79.43 68.62 82.00 65.00
C 80.91 63.19 78.82 66.96 78.00 68.00
C 83.47 68.36 94.57 60.39 96.00 54.00
C 95.67 54.47 94.48 55.42 94.00 56.00 Z"/>
</g>
<g fill="#FEFFFF" fill-opacity="0.05" stroke="None">
<path d="
M 92.00 57.00 
C 90.81 57.48 90.84 57.04 90.00 58.00
C 89.58 58.48 89.11 59.38 89.00 60.00
C 88.91 60.48 89.00 61.00 89.00 61.00
C 90.81 59.31 92.41 57.90 94.00 56.00
C 93.69 56.27 92.44 56.83 92.00 57.00 Z"/>
</g>
<g fill="#ECFDFF" fill-opacity="0.33" stroke="None">
<path d="
M 84.00 63.00 
C 85.40 61.78 87.71 61.41 89.00 60.00
C 89.11 59.38 89.58 58.48 90.00 58.00
C 87.68 59.63 85.79 60.73 84.00 63.00 Z"/>
</g>
<g fill="#171819" fill-opacity="0.01" stroke="None">
<path d="
M 84.00 63.00 
C 83.29 63.90 83.13 64.42 82.00 65.00
C 79.43 68.62 87.92 62.59 89.00 61.00
C 89.00 61.00 88.91 60.48 89.00 60.00
C 87.71 61.41 85.40 61.78 84.00 63.00 Z"/>
</g>
<g fill="#F4F9F8" fill-opacity="0.18" stroke="None">
<path d="
M 33.00 76.00 
C 39.62 80.16 53.55 80.87 58.00 76.00
C 50.96 77.58 42.55 74.34 36.00 75.00
C 35.36 75.06 34.34 76.05 33.00 76.00 Z"/>
</g>
<g fill="#D9FBFE" fill-opacity="0.35" stroke="None">
<path d="
M 76.00 95.00 
C 84.01 90.44 91.91 84.31 97.00 76.00
C 91.95 82.34 82.65 89.80 76.00 95.00 Z"/>
</g>
<g fill="#CEFCFF" fill-opacity="0.36" stroke="None">
<path d="
M 62.00 101.00 
C 63.77 100.52 65.25 100.65 67.00 100.00
C 65.90 100.27 63.91 100.16 62.00 101.00 Z"/>
</g>
<g fill="#D9FBFA" fill-opacity="0.35" stroke="None">
<path d="
M 41.00 104.00 
C 46.07 104.41 51.27 104.00 56.00 103.00
C 54.13 103.01 50.76 102.36 48.00 102.00 C 45.24 101.64 42.64 103.72 41.00 104.00 Z"/>
</g>
<g fill="#F6FDFC" fill-opacity="0.90" stroke="None">
<path d="
M 26.00 123.00 
C 20.27 124.53 13.12 128.99 9.00 134.00
C 4.30 142.25 3.49 151.55 9.00 160.00
C 10.78 161.80 13.28 163.99 15.00 166.00
C 17.34 167.81 19.84 170.13 23.00 171.00
C 20.28 169.54 24.29 169.13 25.00 169.00
C 29.06 168.28 33.03 168.91 37.00 168.00
C 38.41 167.68 41.71 167.12 42.00 167.00
C 53.97 163.75 45.67 153.05 37.00 153.00
C 35.47 157.44 29.46 158.90 25.00 158.00
C 22.27 157.45 20.65 155.64 20.00 153.00
C 19.56 151.21 19.52 149.46 19.00 148.00
C 19.48 149.49 18.02 141.23 19.00 146.00
C 19.59 144.30 20.60 142.10 21.00 140.00
C 21.40 137.90 20.16 135.02 25.00 135.00
C 28.50 132.17 32.22 135.32 33.00 136.00
C 34.07 137.63 37.39 138.27 37.00 141.00
C 39.66 141.60 41.05 139.25 43.00 138.00
C 44.49 136.62 45.41 133.62 48.00 134.00
C 49.56 124.44 31.33 122.42 26.00 123.00 Z"/>
</g>
<g fill="#E5FDFF" fill-opacity="0.37" stroke="None">
<path d="
M 9.00 134.00 
C 13.12 128.99 20.27 124.53 26.00 123.00
C 18.18 123.85 12.84 127.25 9.00 134.00 Z"/>
</g>
<g fill="#F6FDFD" fill-opacity="0.94" stroke="None">
<path d="
M 85.00 171.00 
C 87.02 167.18 92.49 169.76 96.00 169.00
C 97.25 162.13 93.44 151.46 98.00 147.00
C 97.62 150.48 100.80 152.35 99.00 155.00
C 99.00 155.00 98.92 155.51 99.00 156.00
C 101.19 157.09 101.26 162.07 104.00 163.00
C 108.98 163.89 110.27 161.16 111.00 157.00
C 111.39 154.78 110.99 149.89 113.00 147.00
C 117.97 152.73 113.22 161.94 114.00 169.00
C 125.69 176.25 127.27 162.88 126.00 154.00 C 124.73 145.12 126.96 133.16 126.00 124.00
C 121.00 124.63 114.99 122.35 111.00 126.00
C 108.34 130.17 108.52 135.75 106.00 140.00
C 105.89 140.55 106.91 143.59 106.00 145.00
C 104.27 145.56 101.95 141.77 104.00 141.00
C 102.97 128.96 97.11 118.71 83.00 123.00
C 83.95 129.89 81.73 141.59 83.00 148.00 C 84.27 154.41 79.67 168.42 85.00 171.00 Z"/>
</g>
<g fill="#F2FCFB" fill-opacity="0.24" stroke="None">
<path d="
M 111.00 126.00 
C 114.99 122.35 121.00 124.63 126.00 124.00
C 126.96 133.16 124.73 145.12 126.00 154.00 C 127.27 162.88 125.69 176.25 114.00 169.00
C 113.68 168.80 113.05 168.35 113.00 168.00
C 111.04 168.47 113.79 169.84 113.00 171.00
C 120.41 167.97 128.64 177.16 128.00 164.00 C 127.36 150.84 129.08 135.91 127.00 123.00
C 120.98 123.59 114.24 120.93 111.00 126.00 Z"/>
</g>
<g fill="#E5FDFC" fill-opacity="0.38" stroke="None">
<path d="
M 25.00 135.00 
C 24.76 135.20 25.00 136.00 25.00 136.00
C 27.45 136.22 30.66 135.29 33.00 136.00
C 32.22 135.32 28.50 132.17 25.00 135.00 Z"/>
</g>
<g fill="#E6FDFF" fill-opacity="0.20" stroke="None">
<path d="
M 43.00 138.00 
C 44.47 137.05 47.59 136.52 48.00 134.00
C 45.41 133.62 44.49 136.62 43.00 138.00 Z"/>
</g>
<g fill="#E2FEFE" fill-opacity="0.60" stroke="None">
<path d="
M 21.00 140.00 
C 21.86 138.26 23.42 137.11 25.00 136.00
C 25.00 136.00 24.76 135.20 25.00 135.00
C 20.16 135.02 21.40 137.90 21.00 140.00 Z"/>
</g>
<g fill="#EDFBFD" fill-opacity="0.46" stroke="None">
<path d="
M 104.00 141.00 
C 101.95 141.77 104.27 145.56 106.00 145.00
C 106.91 143.59 105.89 140.55 106.00 140.00
C 104.66 142.26 104.89 140.17 104.00 141.00 Z"/>
</g>
<g fill="#E8FDFE" fill-opacity="0.67" stroke="None">
<path d="
M 19.00 148.00 
C 18.84 147.56 18.84 146.45 19.00 146.00
C 18.02 141.23 19.48 149.49 19.00 148.00 Z"/>
</g>
<g fill="#EDFDFE" fill-opacity="0.40" stroke="None">
<path d="
M 85.00 171.00 
C 101.11 178.79 94.23 159.11 99.00 155.00
C 100.80 152.35 97.62 150.48 98.00 147.00
C 93.44 151.46 97.25 162.13 96.00 169.00
C 92.49 169.76 87.02 167.18 85.00 171.00 Z"/>
</g>
<g fill="#EDFCFD" fill-opacity="0.47" stroke="None">
<path d="
M 111.00 157.00 
C 110.75 156.28 114.23 158.40 113.00 161.00 C 111.77 163.60 112.66 165.65 113.00 168.00
C 113.05 168.35 113.68 168.80 114.00 169.00
C 113.22 161.94 117.97 152.73 113.00 147.00
C 110.99 149.89 111.39 154.78 111.00 157.00 Z"/>
</g>
<g fill="#E4FEFF" fill-opacity="0.31" stroke="None">
<path d="
M 25.00 158.00 
C 24.88 157.96 20.09 153.23 20.00 153.00
C 20.65 155.64 22.27 157.45 25.00 158.00 Z"/>
</g>
<g fill="#E5FDFE" fill-opacity="0.35" stroke="None">
<path d="
M 104.00 163.00 
C 101.26 162.07 101.19 157.09 99.00 156.00
C 99.52 159.20 100.46 162.37 104.00 163.00 Z"/>
</g>
<g fill="#F4FCFC" fill-opacity="0.66" stroke="None">
<path d="
M 66.00 159.00 
C 56.80 158.61 59.26 171.77 66.75 170.80 C 74.24 169.83 72.06 159.26 66.00 159.00 Z"/>
</g>
<g fill="#E9FEFF" fill-opacity="0.41" stroke="None">
<path d="
M 15.00 166.00 
C 13.28 163.99 10.78 161.80 9.00 160.00
C 10.83 162.81 12.39 163.98 15.00 166.00 Z"/>
</g>
<g fill="#E6FEFD" fill-opacity="0.29" stroke="None">
<path d="
M 37.00 168.00 
C 36.77 168.14 37.24 169.69 37.00 170.00
C 39.12 169.29 40.25 168.14 42.00 167.00
C 41.71 167.12 38.41 167.68 37.00 168.00 Z"/>
</g>
<g fill="#DFFCFD" fill-opacity="0.53" stroke="None">
<path d="
M 25.00 169.00 
C 24.81 169.08 25.25 170.75 25.00 171.00
C 29.18 171.00 33.15 171.28 37.00 170.00
C 37.24 169.69 36.77 168.14 37.00 168.00
C 33.03 168.91 29.06 168.28 25.00 169.00 Z"/>
</g>
<g fill="#DBFCFE" fill-opacity="0.34" stroke="None">
<path d="
M 23.00 171.00 
C 23.46 171.13 24.50 171.00 25.00 171.00
C 25.25 170.75 24.81 169.08 25.00 169.00
C 24.29 169.13 20.28 169.54 23.00 171.00 Z"/>
</g>
<g fill="#E2F5FB" fill-opacity="0.17" stroke="None">
<path d="
M 43.00 180.00 
C 44.49 179.49 46.47 180.39 48.00 180.00
C 48.51 181.41 47.19 182.15 46.00 182.00
C 45.75 182.67 47.32 183.19 47.00 184.00
C 52.49 180.82 47.05 178.48 43.00 180.00 Z"/>
</g>
<g fill="#EEFAF7" fill-opacity="0.55" stroke="None">
<path d="
M 68.00 179.00 
C 60.26 177.31 56.46 188.81 64.33 191.67 C 72.19 194.52 75.34 180.61 68.00 179.00
M 66.00 183.00 
C 72.17 185.83 62.67 190.58 66.00 183.00 Z"/>
</g>
<g fill="#F1FAF7" fill-opacity="0.52" stroke="None">
<path d="
M 85.00 179.00 
C 79.87 180.36 82.77 187.87 82.00 192.00
C 85.33 192.00 88.67 192.00 92.00 192.00
C 91.71 189.26 90.72 187.14 87.00 188.00
C 86.25 184.83 87.02 182.07 85.00 179.00 Z"/>
</g>
<g fill="#E7FDFF" fill-opacity="0.38" stroke="None">
<path d="
M 39.00 188.00 
C 38.82 186.87 41.19 180.62 43.00 180.00
C 39.54 181.30 37.90 183.85 39.00 188.00 Z"/>
</g>
<g fill="#E8F2ED" fill-opacity="0.70" stroke="None">
<path d="
M 39.00 188.00 
C 39.86 191.24 45.04 193.25 48.00 192.00
C 49.19 191.28 48.87 189.11 49.00 188.00
C 48.00 188.00 47.00 188.00 46.00 188.00
C 44.47 187.20 43.97 187.78 43.00 186.00
C 42.44 184.97 42.32 183.19 42.00 182.00
C 43.33 182.00 44.67 182.00 46.00 182.00
C 47.19 182.15 48.51 181.41 48.00 180.00
C 46.47 180.39 44.49 179.49 43.00 180.00
C 41.19 180.62 38.82 186.87 39.00 188.00 Z"/>
</g>
<g fill="#DDD6E6" fill-opacity="0.24" stroke="None">
<path d="
M 43.00 186.00 
C 42.98 184.22 46.20 184.46 47.00 184.00
C 47.32 183.19 45.75 182.67 46.00 182.00
C 44.67 182.00 43.33 182.00 42.00 182.00
C 42.32 183.19 42.44 184.97 43.00 186.00 Z"/>
</g>
<g fill="#000000" fill-opacity="0.00" stroke="None">
<path d="
M 66.00 183.00 
C 62.67 190.58 72.17 185.83 66.00 183.00 Z"/>
</g>
<g fill="#C8F1FC" fill-opacity="0.08" stroke="None">
<path d="
M 46.00 188.00 
C 47.00 188.00 48.00 188.00 49.00 188.00
C 48.87 189.11 49.19 191.28 48.00 192.00
C 50.78 190.83 50.00 190.94 49.30 187.71 C 48.59 184.48 46.61 188.06 46.00 188.00 Z"/>
</g>
</svg>